<svg width="790" height="508" viewBox="0 0 790 508" fill="none" xmlns="http://www.w3.org/2000/svg">
<g clip-path="url(#clip0_51_148)">
<path fill-rule="evenodd" clip-rule="evenodd" d="M550.579 24.6808C550.949 24.978 551.98 25.4059 551.675 25.5899C550.881 26.0714 552.83 25.0922 554.957 29.54C555.962 31.641 556.018 34.4751 555.951 36.767C567.609 39.4966 570.792 43.3093 585.724 43.5363C595.741 43.6886 613.351 40.0486 620.904 44.554L598.311 54.1811L599.67 58.6917C604.57 56.3032 602.02 56.1466 607.372 55.2405C612.345 54.3991 634.953 57.1873 651.362 48.8214C658.31 45.2797 658.377 45.1083 666.49 43.9499C664.209 41.7031 664.043 40.8406 657.467 40.0173C652.264 39.3657 649.433 40.5502 647.968 38.825C647.83 38.6629 647.464 38.1769 647.29 37.9848C640.049 29.9969 605.754 31.2753 597.415 32.9953C574.196 37.7846 578.764 27.242 550.579 24.6808H550.579Z" fill="#F2913A"/>
<path fill-rule="evenodd" clip-rule="evenodd" d="M73.752 16.054C76.3662 20.2036 79.6472 38.7189 70.9456 34.7313C65.4375 32.2066 66.481 18.9201 73.752 16.054ZM72.3485 10.9801C67.0327 13.2153 65.4135 18.8626 65.3922 25.7933C65.367 34.1424 66.7278 38.1135 72.3485 40.5531C82.2931 35.9284 80.6869 14.7003 72.3485 10.9804V10.9801Z" fill="#ECECEC"/>
<path fill-rule="evenodd" clip-rule="evenodd" d="M71.0408 23.3793C70.1479 29.0204 70.3905 28.5004 72.214 33.1988C74.3371 31.1938 72.9174 35.6183 74.2481 30.3145C75.8447 23.9507 71.0457 23.3815 71.0408 23.3793Z" fill="#ECECEC"/>
<path fill-rule="evenodd" clip-rule="evenodd" d="M631.28 230.269C634.014 233.376 627.459 231.511 635.649 233.402C632.719 236.884 632.093 232.943 630.502 240.381C638.149 241.997 649.176 243.397 656.367 244.656C649.104 249.834 648.942 246.642 637.952 258.536C631.991 264.988 632.822 266.68 626.918 271.867C625.252 273.33 625.818 272.602 624.643 273.833C621.754 276.864 623.448 274.774 622.281 277.039C628.393 277.736 628.299 276.537 632.361 273.415C638.572 268.643 637.43 271.422 641.078 268.425C649.858 261.211 646.702 245.749 694.052 241.037C690.95 238.006 688.298 238.902 679.131 236.908C676.616 236.361 665.841 234.655 663.385 234.529C648.18 233.754 645.528 233.046 631.279 230.269H631.28Z" fill="#F2913A"/>
<path fill-rule="evenodd" clip-rule="evenodd" d="M678.829 82.9486L681.214 85.602C680.974 85.8545 680.871 86.0987 680.483 86.1795C680.096 86.2604 679.923 86.6051 679.795 86.7199C676.12 89.9945 676.653 88.5965 676.728 92.5363C681.05 93.1885 708.513 83.1488 729.847 88.9496L742.762 95.5308C740.047 97.1869 710.578 101.905 704.672 102.95C696.47 104.401 679.418 108.508 672.024 113.555C670.598 114.529 670.378 114.715 669.528 115.508C688.002 112.474 704.769 106.961 723.427 105.892C728.502 105.602 771.747 101.235 776.797 95.0638C769.518 92.7859 761.965 93.2034 753.827 89.546C713.683 71.5048 705.792 86.8289 678.829 82.9483L678.829 82.9486Z" fill="#F2913A"/>
<path fill-rule="evenodd" clip-rule="evenodd" d="M657.426 143.21L658.99 144.696C662.275 147.325 662.694 146.637 665.041 149.91C664.24 150.098 663.441 150.32 662.617 150.385L658.212 150.651C656.153 151.252 653.889 153.678 652.779 156.09C654.727 158.804 653.474 157.498 655.931 159.472C662.622 159.531 671.155 161.68 676.615 164.348C684.492 168.196 686.219 167.905 694.835 170.319C677.498 171.8 681.403 175.6 669.38 179.205C671.909 181.628 667.915 179.181 672.76 181.753L681.042 183.772C681.393 183.848 681.737 183.911 682.059 183.992C682.952 184.219 683.787 184.6 684.637 184.95C687.607 182.604 691.415 181.473 695.746 180.451C694.779 180.19 693.921 179.548 693.416 178.494C692.156 175.867 694.067 174.451 694.721 173.696C695.97 172.251 697.459 171.416 699.285 170.947L705.422 169.93L713.306 168.66C715.303 168.635 717.189 167.881 719.172 167.679C722.494 167.225 725.941 166.836 729.115 165.729C729.565 165.393 729.93 165.063 730.193 164.741C725.331 162.158 700.272 162.52 690.67 157.654C678.941 151.71 671.192 147.801 657.426 143.21Z" fill="#F2913A"/>
<path fill-rule="evenodd" clip-rule="evenodd" d="M639.113 264.748C629.466 265.743 625.717 275.372 613.263 276.254C598.463 282.991 598.955 282.962 590.288 295.022C590.934 297.887 592.324 296.429 595.995 295.797C599.548 295.185 602.177 294.641 605.594 294.143C608.516 293.717 611.401 293.345 614.546 293.042C625.613 291.975 622.869 293.677 622.88 296.32L640.802 290.654C630.225 286.123 616.099 288.136 603.676 286.718C609.329 281.726 617.297 283.587 625.008 279.027C629.713 276.245 629.495 274.95 632.651 271.9C637.508 267.207 638.492 270.192 639.113 264.748H639.113Z" fill="#F2913A"/>
<path fill-rule="evenodd" clip-rule="evenodd" d="M700.539 185.286L706.053 180.984C702.634 178.737 702.995 178.41 702.909 178.119C700.929 178.319 701.548 178.067 699.938 179.219C698.065 181.192 694.663 181.097 693.415 178.495C692.156 175.867 694.067 174.451 694.72 173.696C695.516 172.776 696.409 172.103 697.425 171.614C691.459 172.976 686.212 173.978 682.369 177.013C675.766 179.595 667.335 183.092 661.647 185.207C657.434 190.018 658.19 183.742 646.425 194.713C640.581 200.163 637.642 200.268 636.254 210.656L644.982 214.524C657.866 217.034 660.262 217.674 674.01 218.376C676.231 218.489 685.973 220.032 688.247 220.526C696.536 222.329 698.933 221.519 701.738 224.259L706.11 224.772C704.74 220.983 702.087 220.266 701.18 216.133C707.811 213.668 705.248 216.566 711.051 211.814C696.518 214.343 692.502 216.836 676.515 212.258C660.84 207.77 657.957 209.978 643.575 209.467C646.615 207.668 645.728 207.076 649.544 205.337C666.089 197.794 684.228 185.163 700.539 185.287V185.286Z" fill="#ECECEC"/>
<path fill-rule="evenodd" clip-rule="evenodd" d="M409.259 69.1776C408.453 72.8781 409.159 72.4393 405.017 72.5457C405.388 68.8497 404.581 67.9223 409.259 69.1776ZM399.726 69.0564C400.588 76.6242 401.928 77.4575 410.112 76.4428C413.618 71.007 413.374 70.4796 411.204 65.3507C404.324 64.6965 405.438 64.6137 400.436 68.5532C400.298 68.6615 399.97 68.8999 399.726 69.0567V69.0564Z" fill="#ECECEC"/>
<path fill-rule="evenodd" clip-rule="evenodd" d="M410.846 386.393C398.288 380.478 396.355 377.763 377.796 379.668C376.984 385.46 375.308 421.998 378.909 426.374L394.785 427.305C405.166 424.159 411.266 420.388 415.476 412.342C417.796 407.906 419.036 402.543 417.787 397.137C416.333 390.843 413.038 390.435 410.846 386.394V386.393Z" fill="#ECECEC"/>
<path fill-rule="evenodd" clip-rule="evenodd" d="M365.784 204.426C354.579 202.957 337.255 203.848 325.544 204.049C306.028 204.385 311.397 215.028 319.407 223.562C329.933 234.776 331.604 229.722 344.657 222.91C357.105 216.414 359.216 207.701 365.784 204.426Z" fill="#ECECEC"/>
<path fill-rule="evenodd" clip-rule="evenodd" d="M332.937 175.38C330.374 175.261 307.297 164.125 314.177 185.592C315.716 190.392 317.997 194.323 320.666 197.836C335.617 199.749 352.816 194.991 363.798 188.937C360.322 186.039 353.612 184.001 348.442 182.128L332.937 175.38H332.937Z" fill="#ECECEC"/>
<path fill-rule="evenodd" clip-rule="evenodd" d="M396.862 111.947C395.753 114.985 396.178 112.732 396.189 116.987C396.212 125.837 400.585 145.825 406.076 153.178C410.808 141.851 415.635 126.923 419.53 114.781C428.248 87.6115 400.253 107.054 396.862 111.946V111.947Z" fill="#ECECEC"/>
<path fill-rule="evenodd" clip-rule="evenodd" d="M452.831 136.387C446.535 140.485 425.196 167.851 419.794 170.975C421.759 146.956 417.63 157.812 424.136 132.613C426.806 122.269 434.269 120.535 446.189 122.205C456.762 123.687 458.289 128.202 452.831 136.386V136.387ZM289.911 344.01C276.168 326.981 270.938 320.54 258.221 301.537C242.439 277.955 207.439 206.654 193.411 193.342C184.17 184.573 170.846 184.19 168.723 193.543C168.029 196.605 169.005 201.967 167.476 204.179C163.054 203.565 164.066 205.135 163.73 199.617C163.633 198.022 164.416 193.605 164.91 192.049C170.896 173.192 185.945 187.11 200.18 181.61C228.604 170.626 229.904 118.768 282.582 71.2244C301.334 54.2991 333.359 33.4452 366.54 26.7266C386.555 22.6739 417.493 21.1919 437.349 25.7875L450.413 29.0242C457.796 31.7681 466.495 34.3723 473.999 37.5027C486.008 42.5125 505.313 53.6944 514.601 61.1144C585.802 117.992 613.398 198.737 568.695 285.768C528.791 363.455 560.557 351.647 578.642 365.773L576.28 372.122C576.28 372.122 577.059 365.81 552.444 367.946C546.663 368.447 554.884 370.007 570.136 372.561C588.421 375.685 578.833 391.86 597.508 386.263C606.247 383.643 621.749 375.249 630.164 379.279C639.596 383.796 637.222 396.823 650.045 403.928C664.558 411.968 682.129 390.063 700.909 396.263C716.202 401.312 703.391 419.224 745.729 411.208C711.116 425.557 670.396 430.923 631.758 427.935C632.046 428.126 632.464 428.287 632.695 428.378L634.618 429.152C655.416 435.824 710.328 432.271 734.303 421.751C740.669 418.958 756.944 413.758 758.142 407.151C753.454 403.493 753.648 405.785 748.384 407.243C743.786 408.517 739.997 408.055 735.321 407.485C724.614 406.18 722.462 404.153 715.679 398.826C700.494 386.902 690.287 391.207 670.452 395.014C644.073 400.077 650.95 379.064 634.02 375.528C614.019 371.349 603.161 387.283 587.438 384.759L581.053 376.732C582.193 370.029 587.01 365.852 578.991 361.326C574.142 358.589 568.569 358.538 564.681 354.615C532.679 322.331 636.358 246.975 585.312 131.303C573.583 104.726 555.664 80.694 531.41 64.0669C508.719 48.5109 500.154 42.203 473.959 31.3778C450.172 21.5482 421.517 18.1702 394.791 18.7012C372.881 19.1364 362.717 22.8356 344.008 28.7707C304.462 41.315 265.313 75.3983 244.544 111.011C231.904 132.685 215.201 177.671 191.974 179.562C178.54 180.656 162.292 160.411 162.276 203.382C137.575 205.054 124.865 186.559 117.013 170.917C109.98 156.909 104.53 123.94 105.509 105.586C106.165 93.2694 99.772 47.372 96.0451 36.2767C93.1537 27.6699 89.2653 13.4908 84.7874 7.88143C72.9293 -6.97316 43.1212 -2.07132 51.8486 33.2909C58.5718 60.5333 76.0199 65.0975 80.5773 83.8518C85.4559 103.928 47.8953 116.792 32.2471 104.936C23.3994 98.233 25.9958 87.2399 28.8118 75.7077C31.8684 63.1925 46.8372 13.7664 20.7285 18.0192C-4.35496 22.1054 -4.96777 72.0674 9.78463 103.952C15.7307 116.804 17.7453 116.378 19.9599 133.504C22.7694 155.236 17.9934 171.584 26.7014 205.798C31.9147 226.28 37.4921 246.83 47.026 264.376C55.001 279.053 75.7353 312.946 87.0437 323.235C94.7234 330.222 102.523 341.958 117.121 352.457C84.8227 308.582 122.325 354.573 84.8227 310.637C52.7137 273.019 34.3207 224.902 28.3956 174.408C24.9561 145.095 34.0898 135.26 15.2763 109.544C4.32787 94.5784 -1.41638 64.9569 3.73317 46.8429C6.33802 37.6808 11.1445 25.0498 22.6019 26.8718C45.5724 52.6095 -3.69914 108.537 47.5971 111.791C75.2315 113.544 103.739 101.043 77.467 70.8175L62.9889 54.379C41.6459 26.8207 59.519 -6.09453 81.5695 16.0245C101.048 35.5636 89.9933 55.3026 100.581 89.6481C105.905 106.918 95.7314 111.102 101.719 145.504C105.052 164.654 109.95 176.218 119.867 187.817C150.485 223.623 174.901 201.676 187.82 210.096C197.963 216.708 207.899 235.702 213.082 246.558L245.313 305.779C259.305 330.651 281.551 353.982 306.566 368.132C350.808 390.919 379.81 366.694 381.884 365.994C384.434 365.133 345.878 370.475 326.449 367.523C307.594 364.658 290.728 344.827 289.912 344.012L289.911 344.01ZM16.7551 43.5554C19.2691 47.3749 18.5667 47.0677 18.7342 51.9718C14.7861 49.3368 15.8445 49.5176 13.6516 50.056L13.2623 54.9204C17.4055 59.1538 15.871 53.979 16.7784 59.8639C7.96237 65.0662 9.49908 45.2182 16.7555 43.5557L16.7551 43.5554ZM18.3895 39.5859C6.36162 35.2422 7.97401 61.0469 11.2777 67.3046C22.5304 64.8282 22.7157 49.29 18.3895 39.5859ZM441.541 190.85C447.578 183.808 467.43 163.985 477.373 164.922C480.528 165.219 488.61 170.64 490.684 172.779C499.212 181.575 503.686 190.463 483.803 190.756C470.663 190.949 454.371 191.819 441.541 190.85ZM429.325 108.057C427.666 112.162 409.429 180.922 409.508 183.222C415.883 182.096 426.789 166.077 431.798 161.158C435.787 157.24 451.639 140.279 452.831 136.386C460.032 131.855 459.785 125.814 451.623 120.783L467.829 121.867C464.693 129.887 456.934 136.018 452.75 144.041C454.289 142.887 458.891 134.933 474.932 142.856C484.319 147.493 483.562 153.715 474.863 158.52C467.249 162.725 443.118 175.558 435.046 177.392C437.792 172.609 440.455 169.568 441.76 163.972C444.304 153.063 443.396 158.217 447.755 150.386C442.464 157.098 420.336 182.078 418.397 188.229C424.697 186.009 429.553 182.263 436.071 178.997C448.267 172.888 459.747 168.526 472.689 161.254C481.305 156.413 484.928 156.627 481.702 144.76C488.002 146.408 490.337 147.695 494.126 151.319C491.64 154.366 480.908 159.818 477.047 161.914L432.41 186.456C430.612 187.361 429.324 187.816 427.579 189.086C423.693 191.913 425.254 189.267 425.049 192.627L488.739 192.316C497.139 191.604 500.335 189.462 499.763 180.622C501.225 181.639 501.205 181.039 502.471 181.438C504.503 186.029 506.971 187.09 509.268 191.563L428.403 200.755C429.768 204.674 432.231 204.368 436.702 205.833L483.197 223.453C492.975 227.157 495.694 227.272 500.942 219.125L505.371 232.323C500.434 232.442 486.562 227.613 480.003 226.692C475.272 224.4 431.892 211.536 428.559 213.114C429.712 216.535 452.529 235.201 457.941 240.154C461.625 243.526 462.716 244.342 465.919 247.04C477.395 256.706 477.826 264.522 490.534 253.894L488.595 270.021L455.357 245.29C452.96 242.566 428.078 220.932 423.733 221.005L440.24 256.725C450.29 277.689 448.763 286.194 464.265 282.215C462.807 287.661 459.594 291.564 456.563 295.013C454.637 293.743 456.182 295.057 454.466 293.132L421.049 232.583C418.788 227.768 419.304 226.357 414.607 225.825C412.882 232.066 415.533 261.235 415.763 269.912C416.004 278.999 414.234 295.181 419.992 299.086L428.735 302.432C424.217 304.212 421.244 307.287 414.95 308.163L405.911 227.891C401.574 229.793 394.281 255.291 392.463 260.139C377.673 299.586 378.231 292.642 390.014 301.244L374.779 303.399C377.35 290.471 382.016 274.325 385.379 263.322C388.476 253.186 395.317 235.694 396.845 225.905C392.669 227.529 366.44 257.568 361.019 263.377C352.127 272.905 345.56 277.475 353.948 287.209C347.778 287.405 344.786 286.348 339.63 284.293C348.392 273.534 355.644 262.574 364.709 252.276C368.274 248.227 389.581 224.897 389.258 219.883C385.543 220.162 358.788 233.613 352.492 236.409C331.036 245.937 320.653 246.541 325.244 258.637C322.917 257.64 321.823 257.072 320.041 255.821L315.407 251.427C324.605 243.179 377.208 220.484 383.639 212.749C371.082 211.768 354.618 212.988 341.669 213.331C314.471 214.053 314.856 208.578 309.763 222.83C307.801 219.929 305.385 216.987 304.3 212.145L384.52 204.323C383.318 203.518 335.407 186.299 332.937 185.962L321.609 180.935C314.092 179.614 314.885 182.778 310.828 186.198L309.413 174.548C321.084 176.609 337.081 182.202 347.758 185.879C356.896 189.026 375.749 196.115 385.041 197.565C382.297 192.59 363.844 177.068 360.005 174.555C364.534 180.67 365.968 178.213 369.012 185.281C361.114 184.856 350.617 185.727 344.119 183.619C327.624 178.266 321.582 181.646 323.295 161.223C324.726 144.159 339.289 155.651 340.445 156.282C335.961 150.686 332.127 148.15 323.941 152.226L325.748 141.123C331.108 142.458 338.184 149.46 342.46 152.991C349.271 158.614 385.438 189.888 390.13 191.327C387.688 185.759 382.981 178.742 379.919 172.375C376.291 164.832 361.01 131.096 356.896 127.38C353.249 124.086 351.212 125.849 346.635 126.802C348.345 121.412 350.329 118.665 354.023 115.667C361.455 121.939 390.516 182.752 396.896 187.214C395.979 183.868 394.628 182.197 394.079 178.351L392.244 145.14C390.264 104.926 391.989 115.931 381.255 109.323C385.407 106.915 386.676 104.057 391.839 105.021C395.85 131.132 398.735 158.365 400.706 184.974L402.891 179.037C403.297 177.368 403.632 175.695 404.096 174.183L413.837 145.735C421.901 123.913 426.035 120.805 419.752 108.595C431.505 104.317 428.242 105.418 429.325 108.057ZM507.969 178.521C508.268 170.419 501.906 156.32 497.917 150.725C485.941 133.926 476.4 123.237 458.402 113.637C451.792 110.111 440.469 102.281 431.785 103.529C429.155 101.497 431.755 102.721 427.209 101.584C427.162 101.572 423.273 100.998 422.983 100.966C397.529 98.1444 384.659 100.525 359.96 110.309C348.863 114.705 342.316 122.622 335.018 128.611C302.466 155.322 292.005 215.863 314.692 256.114C320.8 266.951 326.722 273.161 333.171 280.928C338.114 286.883 350.93 294.434 358.809 298.571C382.641 311.083 403.718 313.013 430.412 308.089C444.206 305.544 451.704 300.907 460.845 295.268C480.76 282.984 493.439 272.3 502.062 249.915C508.761 232.524 517.087 200.852 509.411 181.203C509.302 180.925 509.07 180.501 508.975 180.279C508.88 180.059 508.22 179.547 508.485 179.39C508.75 179.234 508.18 178.783 507.968 178.521L507.969 178.521ZM332.937 185.962L348.443 192.71C353.613 194.583 360.322 196.621 363.799 199.519C352.816 205.573 335.618 210.331 320.667 208.418C317.998 204.906 315.716 200.975 314.178 196.174C307.297 174.708 330.374 185.844 332.938 185.962H332.937ZM365.784 215.008C359.216 218.283 357.105 226.996 344.657 233.493C331.604 240.305 329.933 245.359 319.407 234.145C311.397 225.611 306.028 214.967 325.544 214.632C337.255 214.43 354.58 213.539 365.784 215.008ZM350.317 268.116C339.048 266.605 325.93 261.067 325.525 251C329.372 247.323 366.087 230.377 373.801 228.546C365.77 251.079 369.079 245.306 357.701 260.01L350.316 268.116H350.317ZM355.815 127.706C361.517 135.063 374.607 162.872 378.328 173.406C363.466 169.645 357.031 162.83 347.538 155.345C341.231 150.371 338.452 150.096 341.691 138.964C344.002 131.022 346.585 127.826 355.815 127.706L355.815 127.706ZM352.26 284.145C350.971 277.209 352.317 274.027 356.305 269.847L374.236 250.663C378.196 247.06 380.059 244.457 383.597 241.75C386.408 263.239 384.658 266.981 378.102 286.18C364.677 288.144 363.414 288.754 352.26 284.145V284.145ZM391.506 164.397C384.724 160.048 376.618 150.697 372.57 143.812C366.005 132.644 361.906 129.751 371.387 119.262C374.17 116.183 380.624 111.859 384.779 112.717C390.314 113.86 389.834 121.275 390.104 126.584C390.736 139.053 391.518 151.21 391.506 164.397ZM399.471 244.741C400.207 245.678 400.264 245.709 401.107 247.388C407.755 260.643 411.49 276.207 411.021 291.188C401.895 295.232 395.048 303.396 383.733 294.789C382.225 283.049 395.88 256.769 399.471 244.741ZM406.076 163.76C400.585 156.407 396.212 136.419 396.189 127.569C396.178 123.314 395.754 125.568 396.862 122.529C400.253 117.636 428.248 98.1942 419.53 125.364C415.635 137.506 410.808 152.434 406.076 163.76V163.76ZM416.748 242.869C420.852 245.812 423.524 249.873 427.742 253.084C434.226 258.02 432.851 257.273 436.977 264.877C443.056 276.081 450.835 281.972 439.177 292.108C436.283 294.625 429.652 299.235 424.419 298.734C417.168 298.04 417.874 289.99 417.655 283.553C417.245 271.423 415.712 254.644 416.748 242.869ZM455.356 245.29L471.922 258.143C471.453 268.986 460.711 296.639 449.559 273.281C445.291 264.34 434.323 244.257 432.66 235.975C440.301 238.911 449.153 242.073 455.356 245.29ZM480.002 226.692C484.813 228.996 486.767 227.919 488.445 234.243C491.411 245.421 488.824 266.157 473.744 252.772L441.833 222.918C448.597 223.203 456.579 222.501 462.709 222.92C468.535 223.318 473.594 226.023 480.002 226.692ZM443.96 206.796C448.807 203.734 456.034 201.851 461.45 199.45C466.403 197.255 476.007 196.281 481.711 195.983C488.637 195.621 491.246 200.615 494.529 206.001C498.305 212.196 499.53 216.253 496.358 223.042C485.925 225.91 460.021 212.632 443.96 206.796H443.96ZM411.664 202.258C411.868 210.498 410.079 212.213 401.696 211.878C398.818 208.192 398.921 209.452 398.371 203.722C401.467 200.028 403.487 194.593 411.664 202.258L411.664 202.258ZM403.44 195.755C393.227 197.819 392.503 219.151 407.664 214.988C420.091 211.576 417.408 192.931 403.44 195.755ZM405.017 83.1274C409.159 83.0214 408.453 83.4599 409.26 79.7594C404.581 78.5037 405.388 79.4315 405.017 83.1274ZM402.204 331.346C399.775 332.641 400.524 329.925 400.038 333.199C399.276 338.333 399.535 333.426 400.969 335.858C402.221 335.056 405.074 336.843 402.204 331.346Z" fill="#ECECEC"/>
<path fill-rule="evenodd" clip-rule="evenodd" d="M705.678 120.318C720.624 119.954 724.633 119.359 731.344 127.052C735.092 131.348 748.877 131.495 755.116 133.844C753.07 137.121 746.649 138.723 741.662 139.943L741.531 144.5C749.198 141.842 760.107 140.52 766.68 137.832C772.541 135.435 783.524 129.608 789.725 129.225C781.323 127.972 774.594 129.012 766.38 129.047C752.398 129.108 758.516 125.029 750.313 121.421C743.534 118.439 712.018 116.777 705.678 120.319V120.318Z" fill="#F2913A"/>
<path fill-rule="evenodd" clip-rule="evenodd" d="M686.434 196.534C697.825 197.48 699.074 193.795 710.709 195.61C720.779 197.18 724.153 200.025 731.847 198.333C726.023 201.487 719.264 201.549 716.114 207.525C717.507 209.352 711.724 211.473 723.045 210.668L726.884 209.795L722.89 215.734C727.935 213.916 735.623 208.576 739.515 205.706C748.286 199.24 752.446 199.535 756.284 195.823L734.865 189.046C718.931 184.966 701.322 191.356 686.434 196.534L686.434 196.534Z" fill="#F2913A"/>
<path fill-rule="evenodd" clip-rule="evenodd" d="M687.079 45.1426C678.732 45.7344 670.141 49.3647 662.892 52.5177C658.976 54.2216 656.132 55.9044 652.013 57.5822C647.213 59.538 644.015 59.709 642.07 63.3426C643.646 64.0983 664.878 67.217 668.808 67.4056C681.442 68.0122 686.27 64.3654 696.003 63.589C699.07 61.6972 700.152 62.3307 703.705 60.9107C710.393 58.238 707.872 58.1005 708.901 57.5362C714.734 54.445 717.679 57.4357 721.493 55.9821C720.174 53.427 710.929 48.7373 706.721 47.8445C701.867 46.8142 691.419 45.1908 687.079 45.1426H687.079ZM723.045 210.668C706.117 210.882 741.227 196.685 742.493 196C733.612 195.181 728.9 199.996 719.508 195.511C715.087 195.36 716.549 196.521 710.709 195.61C699.074 193.796 714.197 194.169 702.807 193.224C686.495 193.1 668.356 205.731 651.811 213.274C647.995 215.014 648.882 215.605 645.842 217.404C660.224 217.915 663.108 215.707 678.783 220.195C694.77 224.773 698.786 222.28 713.319 219.751C713.434 219.676 721.046 216.9 722.89 215.735L726.884 209.795L723.045 210.669L723.045 210.668ZM684.637 184.95L682.984 184.27C682.727 184.194 682.357 184.068 682.058 183.992C681.736 183.911 681.392 183.848 681.041 183.773C676.075 182.562 673.102 182.771 669.379 179.205C681.402 175.601 677.497 171.8 694.835 170.319C685.202 161.053 638.872 157.895 662.617 150.385C662.823 150.369 663.286 150.299 663.45 150.282L665.04 149.911C662.693 146.638 662.545 147.055 659.26 144.426C654.952 140.332 633.25 137.07 627.793 136.625C631.319 128.926 643.706 123.591 651.328 121.2C657.369 119.305 664.16 116.838 669.527 115.509C670.377 114.715 670.597 114.529 672.022 113.556C679.417 108.509 696.469 104.401 704.67 102.95C710.576 101.905 740.046 97.1872 742.76 95.5311L729.846 88.95C701.081 81.1286 702.355 90.2377 678.828 82.9493C657.41 80.8722 648.233 69.2 625.616 67.098C611.887 64.5491 606.789 65.9167 592.992 66.2847L599.705 59.7013C602.395 57.49 603.88 56.222 607.158 55.0148L624.266 43.624C618.181 39.9937 603.992 42.9268 595.922 42.8039C577.203 42.5193 568.99 32.1109 551.163 25.0486C536.316 19.1672 512 18.7355 473.274 24.19C473.274 24.19 480.334 25.2335 489.488 29.4537C546.38 55.6858 601.433 115.363 605.853 179.537C616.201 253.751 561.676 320.275 565.688 334.798C579.205 334.471 607.907 306.979 616.726 300.403C619.098 298.634 620.651 298.136 622.879 296.321C622.868 293.678 625.611 291.976 614.544 293.044C611.4 293.347 608.515 293.718 605.592 294.144C602.175 294.642 599.546 295.186 595.994 295.798C592.322 296.43 590.933 297.889 590.286 295.023C598.954 282.963 598.462 282.992 613.262 276.256C631.576 274.958 642.597 259.584 653.281 248.02C663.217 237.266 663.364 240.151 669.93 235.47C664.837 234.578 657.596 233.704 651.399 232.527C649.583 232.182 644.208 230.927 650.387 227.289C656.209 223.861 666.647 222.26 668.616 219.92C664.849 219.05 649.2 220.837 641.259 219.376C637.408 218.668 636.979 217.735 638.398 213.962C639.675 210.57 644.03 206.998 648.691 202.652C656.632 195.247 674.326 188.983 684.635 184.952L684.637 184.95Z" fill="#DD3535"/>
<path fill-rule="evenodd" clip-rule="evenodd" d="M687.079 45.1426C691.419 45.1911 701.867 46.8141 706.72 47.8444C710.929 48.7376 720.174 53.4273 721.492 55.982C717.678 57.4356 714.733 54.445 708.9 57.5362C703 60.663 710.393 58.2376 703.704 60.9107C700.152 62.3307 699.07 61.6972 696.003 63.589C713.5 63.0321 734.887 58.5588 748.8 53.8467C737.187 54.5436 728.307 51.6468 718.673 48.0941C711.45 45.4301 699.272 41.9692 691.114 43.5758C690.924 43.6146 688.991 44.2061 688.991 44.2061L687.079 45.1426H687.079Z" fill="#F2913A"/>
<path fill-rule="evenodd" clip-rule="evenodd" d="M399.726 69.0561C399.97 68.8992 400.298 68.6612 400.436 68.5526C405.438 64.6131 404.324 64.6959 411.204 65.3501C413.374 70.479 413.618 71.0064 410.112 76.4422C401.928 77.4569 400.588 76.6236 399.726 69.0558V69.0561ZM399.726 69.0561C399.198 69.7908 398.373 66.2899 398.239 72.7705C398.197 74.7881 398.571 75.461 399.499 76.6679C400.823 78.3886 404.057 79.2776 407.098 79.0224C414.876 78.3702 415.213 73.5123 414.567 66.1334C412.757 62.4536 402.276 59.1124 399.726 69.0558V69.0561Z" fill="#ECECEC"/>
<path fill-rule="evenodd" clip-rule="evenodd" d="M537.896 195.743C545.182 201.9 543.422 208.768 531.267 206.872L529.556 200.822C531.525 197.798 533.46 195.701 537.896 195.743ZM542.288 194.992C533.797 192.514 526.703 194.003 528.218 205.667C537.105 214.786 547.187 209.174 542.288 194.992Z" fill="#ECECEC"/>
<path fill-rule="evenodd" clip-rule="evenodd" d="M396.267 327.277C392.245 317.864 402.393 317.053 404.98 319.656C410.089 324.796 402.967 329.999 396.267 327.277ZM408.173 326.327C408.695 310.47 395.185 315.75 393.486 321.444C392.202 325.745 394.498 329.999 398.819 331.053C403.736 332.253 405.138 329.274 408.173 326.327Z" fill="#ECECEC"/>
<path fill-rule="evenodd" clip-rule="evenodd" d="M281.773 196.637C269.433 199.051 270.088 190.095 274.836 187.289C281.237 183.507 284.352 189.684 281.773 196.637ZM278.662 184.293C265.668 190.071 270.884 197.559 273.721 199.313C282.284 204.611 292.804 189.187 278.662 184.293Z" fill="#ECECEC"/>
<path fill-rule="evenodd" clip-rule="evenodd" d="M536.661 198.877C533.447 201.253 533.483 199.732 535.373 203.923C536.857 203.327 537.129 204.537 537.786 202.465C539.769 196.2 537.837 200.482 536.661 198.877Z" fill="#ECECEC"/>
<path d="M405.697 196.524C406.629 196.524 407.385 195.901 407.385 195.132C407.385 194.364 406.629 193.741 405.697 193.741C404.765 193.741 404.01 194.364 404.01 195.132C404.01 195.901 404.765 196.524 405.697 196.524Z" fill="#ECECEC" stroke="#868686" stroke-width="0.755746" stroke-miterlimit="22.9256"/>
<path d="M277.863 193.858C278.749 193.858 279.467 193.177 279.467 192.337C279.467 191.497 278.749 190.816 277.863 190.816C276.977 190.816 276.259 191.497 276.259 192.337C276.259 193.177 276.977 193.858 277.863 193.858Z" fill="#ECECEC" stroke="#ECECEC" stroke-width="0.755746" stroke-miterlimit="22.9256"/>
<path fill-rule="evenodd" clip-rule="evenodd" d="M395.487 411.723C393.201 412.029 390.679 411.527 388.547 411.081C387.685 410.899 383.163 409.986 382.775 409.729C385.203 408.817 386.633 407.422 389.314 406.732C392.709 405.86 397.299 406.175 400.686 407.161C402.433 407.671 404.217 406.879 404.171 406.879C403.562 409.059 397.524 411.278 395.487 411.723L395.487 411.723Z" fill="#DD3535"/>
<path d="M151.684 346.98V428.569H142.123L97.6635 364.509H96.8668V428.569H86.9868V346.98H96.5481L141.167 411.2H141.964V346.98H151.684ZM240.295 387.775C240.295 396.38 238.741 403.816 235.634 410.084C232.526 416.352 228.264 421.186 222.846 424.586C217.428 427.985 211.239 429.685 204.281 429.685C197.323 429.685 191.134 427.985 185.716 424.586C180.298 421.186 176.036 416.352 172.928 410.084C169.821 403.816 168.267 396.38 168.267 387.775C168.267 379.17 169.821 371.733 172.928 365.465C176.036 359.198 180.298 354.364 185.716 350.964C191.134 347.565 197.323 345.865 204.281 345.865C211.239 345.865 217.428 347.565 222.846 350.964C228.264 354.364 232.526 359.198 235.634 365.465C238.741 371.733 240.295 379.17 240.295 387.775ZM230.734 387.775C230.734 380.71 229.552 374.748 227.188 369.887C224.851 365.027 221.677 361.349 217.667 358.852C213.683 356.356 209.221 355.107 204.281 355.107C199.341 355.107 194.866 356.356 190.855 358.852C186.872 361.349 183.698 365.027 181.334 369.887C178.997 374.748 177.828 380.71 177.828 387.775C177.828 394.84 178.997 400.802 181.334 405.662C183.698 410.523 186.872 414.201 190.855 416.698C194.866 419.194 199.341 420.442 204.281 420.442C209.221 420.442 213.683 419.194 217.667 416.698C221.677 414.201 224.851 410.523 227.188 405.662C229.552 400.802 230.734 394.84 230.734 387.775ZM256.419 346.98L280.641 415.662H281.597L305.819 346.98H316.177L286.219 428.569H276.02L246.061 346.98H256.419ZM393.892 387.775C393.892 396.38 392.338 403.816 389.231 410.084C386.123 416.352 381.86 421.186 376.442 424.586C371.024 427.985 364.836 429.685 357.878 429.685C350.919 429.685 344.731 427.985 339.313 424.586C333.895 421.186 329.632 416.352 326.525 410.084C323.418 403.816 321.864 396.38 321.864 387.775C321.864 379.17 323.418 371.733 326.525 365.465C329.632 359.198 333.895 354.364 339.313 350.964C344.731 347.565 350.919 345.865 357.878 345.865C364.836 345.865 371.024 347.565 376.442 350.964C381.86 354.364 386.123 359.198 389.231 365.465C392.338 371.733 393.892 379.17 393.892 387.775ZM384.33 387.775C384.33 380.71 383.149 374.748 380.785 369.887C378.448 365.027 375.274 361.349 371.263 358.852C367.28 356.356 362.818 355.107 357.878 355.107C352.938 355.107 348.463 356.356 344.452 358.852C340.468 361.349 337.295 365.027 334.931 369.887C332.594 374.748 331.425 380.71 331.425 387.775C331.425 394.84 332.594 400.802 334.931 405.662C337.295 410.523 340.468 414.201 344.452 416.698C348.463 419.194 352.938 420.442 357.878 420.442C362.818 420.442 367.28 419.194 371.263 416.698C375.274 414.201 378.448 410.523 380.785 405.662C383.149 400.802 384.33 394.84 384.33 387.775Z" fill="#868686"/>
<path fill-rule="evenodd" clip-rule="evenodd" d="M406.071 379.031C402.407 378.857 396.259 372.772 386.544 373.653C374.763 374.72 374.213 371.538 385.369 368.051C387.245 367.465 388.915 366.956 389.743 366.706C394.893 365.115 400.064 366.763 401.008 362.064C392.093 360.797 349.567 359.166 345.552 355.804C344.418 354.855 345.669 352.606 347.999 351.733C351.9 350.272 353.398 347.78 347.759 346.576C339.723 345.942 323.396 346.375 323.396 346.375C326.991 353.631 326.981 351.511 334.119 353.891C343.859 357.139 337.234 356.427 341.031 362.731C348.059 363.573 353.518 363.167 357.852 363.623C361.774 364.038 364.775 365.001 367.185 371.146C367.824 372.776 368.577 371.758 370.63 375.841C376.342 377.608 378.854 376.873 386.694 380.911C389.203 382.251 386.471 384.252 386.922 384.833C387.252 385.258 390.875 383.957 391.581 385.911C390.028 386.633 370.012 389.663 379.071 395.346C380.215 396.063 382.151 397.861 383.96 398.769C388.537 401.065 388.248 400.013 393.473 399.998L387.486 405.622C390.615 404.831 407.82 401.206 411.506 401.331C407.336 397.912 391.153 397.006 384.408 396.858C386.156 384.413 407.001 382.158 406.071 379.031L406.071 379.031Z" fill="#F2913A"/>
<path fill-rule="evenodd" clip-rule="evenodd" d="M373.977 410.414L373.674 409.299C369.522 410.99 370.911 409.976 369.059 413.008C372.605 415.722 373.939 414.739 377.238 416.125C374.831 417.764 368.643 420.963 366.153 422.76C365.071 423.541 365.968 424.058 366.04 424.067C369.193 424.451 383.951 421.104 381.895 419.242C382.497 418.714 383.412 418.317 384.204 417.935C387.974 416.116 394.162 415.232 396.941 412.275C391.77 414.767 389.662 413.953 386.542 413.135C376.717 410.562 376.197 414.127 373.978 410.414L373.977 410.414Z" fill="#F2913A"/>
<path fill-rule="evenodd" clip-rule="evenodd" d="M393.473 399.997C390.245 400.008 377 397.174 379.301 392.282C381.518 387.565 383.125 389.84 391.581 385.91C387.626 374.727 371.264 379.063 368.227 371.312C365.739 364.967 381.679 365.113 381.325 364.687C374.514 361.501 354.469 363.602 346.934 361.802C339.362 359.992 341.778 358.529 341.277 357.072C340.961 356.152 339.015 355.524 334.119 353.891C326.981 351.511 326.991 353.631 323.396 346.375L314.279 346.375C311.19 352.3 312.823 346.914 310.938 352.114L318.685 353.114C316.986 356.223 311.581 356.767 307.713 358.344L327.768 363.684C326.542 364.153 325.797 364.427 324.538 364.802C322.349 365.455 321.201 365.536 318.619 366.411C318.65 369.873 317.748 368.096 320.946 368.955C334.562 370.764 343.439 369.228 355.504 373.553C353.387 374.206 351.713 375.143 350.613 375.865C348.898 375.939 346.952 376.182 344.654 377.058C346.109 380.199 346.718 381.223 351.769 381.191C353.66 382.851 356.371 383.095 361.8 384.825L358.479 383.141C360.427 384.656 375.687 382.077 366.62 385.696C360.072 388.31 358.233 385.666 356.19 393.393C360.931 395.218 371.238 396.185 376.085 399.53C373.663 400.92 370.005 401.171 367.307 401.99C358.063 404.797 360.039 401.471 359.832 402.117C360.414 405.824 358.763 406.906 357.12 410.77L357.073 410.49C355.55 411.233 354.471 407.505 354.338 416.553C354.977 416.814 355.614 417.05 356.247 417.264C356.882 418.227 358.147 418.491 359.643 418.243C363.668 419.23 367.489 419.664 370.843 420.814L350.796 426.405L363.38 430.892C363.042 431.238 362.878 431.338 362.409 431.371L352.17 433.201C350.613 440.877 353.02 434.633 353.178 437.294C353.233 438.223 356.649 438.259 350.476 440.333C346.516 441.665 341.058 441.802 337.302 441.249V441.723C343.557 442.058 353.818 441.851 358.971 439.525L369.554 435.017C371.089 434.08 372.623 433.142 374.158 432.205C375.305 429.887 374.132 429.933 373.597 429.596C369.369 428.149 368.222 427.427 372.607 425.734L380.856 423.694C383.663 422.777 379.609 421.061 384.203 417.935C381.096 416.633 379.436 417.053 376.807 415.825C374.21 414.613 372.999 412.624 375.915 410.844C382.693 406.702 392.836 405.264 393.473 399.997V399.997Z" fill="#DD3535"/>
<path fill-rule="evenodd" clip-rule="evenodd" d="M287.431 369.925L287.812 398.214C287.812 460.331 287.329 480.752 287.399 490.859C287.421 494.054 287.585 500.232 287.585 500.232C287.537 507.456 290.185 507.503 290.185 507.503L312.965 507.503L313.025 453.016C310.804 453.016 366.553 506.735 366.553 506.735L384.556 506.764C384.328 506.536 384.556 483.864 384.556 483.864C384.556 483.864 339.311 443.584 339.33 443.602C339.33 443.602 347.222 444.013 356.296 440.637C362.274 438.159 359.488 439.516 358.28 437.191C356.356 433.48 358.86 433.306 361.384 432.854L365.185 432.175C369.428 431.417 367.069 430.533 366.037 429.991L362.406 428.711C361.047 428.221 357.594 426.94 362.753 424.96L368.857 423.258C371.62 422.513 377.953 421.788 369.4 418.273C359.603 414.248 351.843 408.544 373.235 402.048C374.558 401.647 376.11 401.38 377.636 401.052C383.772 399.73 382.262 398.989 377.166 397.358C366.837 394.053 351.478 394.06 372.544 385.649C375.242 384.572 374.521 384.867 375.64 383.696C371.136 381.73 336.899 377.938 355.099 375.776C366.521 374.416 365.632 373.751 354.064 371.381C345.255 369.576 337.405 370.24 326.577 368.801C319.399 366.872 327.587 365.398 330.192 364.621C337.567 362.423 321.242 360.298 317.786 359.378C312.702 358.024 315.725 357.467 317.45 356.617C319.245 355.732 321.221 355.303 322.716 354.511C324.151 353.751 324.295 352.856 322.296 352.598L318.919 352.163C318.177 351.817 317.023 351.449 317.925 349.881C318.383 349.084 319.006 347.964 319.831 346.375L287.479 346.377L287.431 369.925V369.925ZM315.249 427.51C311.394 422.825 313.188 383.713 314.058 377.513C328.211 376.06 352.871 378.918 356.867 396.213C358.204 402 356.877 407.74 354.392 412.489C345.518 429.455 331.137 428.442 315.249 427.51Z" fill="#ECECEC"/>
<path d="M492.034 383.207C492.034 391.361 490.562 398.409 487.617 404.348C484.672 410.288 480.633 414.869 475.498 418.09C470.364 421.312 464.5 422.922 457.906 422.922C451.312 422.922 445.447 421.312 440.313 418.09C435.179 414.869 431.139 410.288 428.195 404.348C425.25 398.409 423.777 391.361 423.777 383.207C423.777 375.052 425.25 368.005 428.195 362.066C431.139 356.126 435.179 351.545 440.313 348.324C445.447 345.102 451.312 343.491 457.906 343.491C464.5 343.491 470.364 345.102 475.498 348.324C480.633 351.545 484.672 356.126 487.617 362.066C490.562 368.005 492.034 375.052 492.034 383.207ZM482.973 383.207C482.973 376.512 481.853 370.862 479.613 366.256C477.399 361.65 474.391 358.164 470.59 355.799C466.815 353.433 462.587 352.25 457.906 352.25C453.224 352.25 448.984 353.433 445.183 355.799C441.408 358.164 438.4 361.65 436.16 366.256C433.945 370.862 432.838 376.512 432.838 383.207C432.838 389.902 433.945 395.552 436.16 400.158C438.4 404.764 441.408 408.249 445.183 410.615C448.984 412.981 453.224 414.164 457.906 414.164C462.587 414.164 466.815 412.981 470.59 410.615C474.391 408.249 477.399 404.764 479.613 400.158C481.853 395.552 482.973 389.902 482.973 383.207ZM550.059 363.878C549.606 360.052 547.769 357.082 544.547 354.968C541.326 352.854 537.375 351.797 532.693 351.797C529.27 351.797 526.275 352.351 523.708 353.458C521.166 354.565 519.178 356.088 517.743 358.026C516.334 359.964 515.629 362.166 515.629 364.633C515.629 366.696 516.12 368.471 517.101 369.956C518.108 371.416 519.392 372.636 520.952 373.618C522.513 374.574 524.149 375.367 525.86 375.996C527.571 376.6 529.145 377.091 530.579 377.469L538.432 379.583C540.445 380.111 542.685 380.841 545.152 381.772C547.643 382.704 550.022 383.975 552.287 385.585C554.577 387.171 556.465 389.21 557.95 391.701C559.435 394.193 560.177 397.251 560.177 400.875C560.177 405.053 559.082 408.828 556.893 412.201C554.728 415.573 551.557 418.254 547.379 420.242C543.226 422.23 538.18 423.224 532.24 423.224C526.703 423.224 521.909 422.331 517.857 420.544C513.83 418.757 510.658 416.265 508.343 413.069C506.053 409.873 504.756 406.16 504.454 401.932H514.119C514.371 404.852 515.352 407.268 517.064 409.181C518.8 411.068 520.99 412.478 523.633 413.409C526.3 414.315 529.17 414.768 532.24 414.768C535.814 414.768 539.023 414.189 541.867 413.031C544.711 411.848 546.964 410.212 548.625 408.124C550.286 406.009 551.116 403.543 551.116 400.724C551.116 398.157 550.399 396.068 548.965 394.457C547.53 392.846 545.642 391.538 543.302 390.531C540.961 389.524 538.432 388.643 535.713 387.888L526.2 385.17C520.159 383.433 515.377 380.954 511.854 377.733C508.33 374.511 506.569 370.296 506.569 365.086C506.569 360.757 507.739 356.982 510.08 353.76C512.445 350.513 515.617 347.996 519.593 346.21C523.595 344.397 528.062 343.491 532.995 343.491C537.979 343.491 542.408 344.385 546.284 346.172C550.16 347.934 553.231 350.35 555.496 353.42C557.786 356.491 558.994 359.977 559.12 363.878H550.059ZM617.853 363.878C617.4 360.052 615.563 357.082 612.341 354.968C609.12 352.854 605.168 351.797 600.487 351.797C597.064 351.797 594.069 352.351 591.502 353.458C588.96 354.565 586.972 356.088 585.537 358.026C584.128 359.964 583.423 362.166 583.423 364.633C583.423 366.696 583.914 368.471 584.895 369.956C585.902 371.416 587.186 372.636 588.746 373.618C590.307 374.574 591.943 375.367 593.654 375.996C595.365 376.6 596.938 377.091 598.373 377.469L606.226 379.583C608.239 380.111 610.479 380.841 612.945 381.772C615.437 382.704 617.816 383.975 620.081 385.585C622.371 387.171 624.259 389.21 625.744 391.701C627.228 394.193 627.971 397.251 627.971 400.875C627.971 405.053 626.876 408.828 624.686 412.201C622.522 415.573 619.351 418.254 615.173 420.242C611.02 422.23 605.974 423.224 600.034 423.224C594.497 423.224 589.703 422.331 585.65 420.544C581.624 418.757 578.452 416.265 576.137 413.069C573.847 409.873 572.55 406.16 572.248 401.932H581.913C582.165 404.852 583.146 407.268 584.858 409.181C586.594 411.068 588.784 412.478 591.427 413.409C594.094 414.315 596.964 414.768 600.034 414.768C603.608 414.768 606.817 414.189 609.661 413.031C612.505 411.848 614.758 410.212 616.419 408.124C618.08 406.009 618.91 403.543 618.91 400.724C618.91 398.157 618.193 396.068 616.758 394.457C615.324 392.846 613.436 391.538 611.096 390.531C608.755 389.524 606.226 388.643 603.507 387.888L593.994 385.17C587.953 383.433 583.171 380.954 579.648 377.733C576.124 374.511 574.362 370.296 574.362 365.086C574.362 360.757 575.533 356.982 577.873 353.76C580.239 350.513 583.41 347.996 587.387 346.21C591.389 344.397 595.856 343.491 600.789 343.491C605.772 343.491 610.202 344.385 614.078 346.172C617.954 347.934 621.024 350.35 623.29 353.42C625.58 356.491 626.788 359.977 626.914 363.878H617.853Z" fill="#868686"/>
<path fill-rule="evenodd" clip-rule="evenodd" d="M363.146 356.949C360.152 357.35 356.849 356.693 354.056 356.108C352.547 355.792 351.419 355.404 349.84 355.111C348.363 354.838 347.336 354.895 346.495 354.337C348.273 353.669 349.954 352.749 351.476 351.616C353.07 351.045 354.52 350.551 355.061 350.412C359.507 349.269 365.52 349.681 369.956 350.974C372.244 351.641 373.067 350.369 374.521 350.604C374.242 351.604 371.316 353.937 369.893 354.56C368.252 355.279 364.677 356.615 363.146 356.949Z" fill="#DD3535"/>
<path d="M383.631 418.78H414.925C421.12 418.78 425.73 419.047 428.757 419.581C431.818 420.079 434.542 421.147 436.927 422.785C439.348 424.422 441.36 426.612 442.962 429.353C444.564 432.059 445.365 435.103 445.365 438.485C445.365 442.152 444.368 445.517 442.374 448.578C440.416 451.64 437.746 453.937 434.364 455.467C439.135 456.856 442.802 459.223 445.365 462.57C447.928 465.917 449.21 469.851 449.21 474.372C449.21 477.932 448.373 481.404 446.7 484.786C445.062 488.132 442.802 490.82 439.918 492.85C437.07 494.843 433.545 496.072 429.344 496.535C426.709 496.819 420.354 496.997 410.279 497.069H383.631V418.78ZM399.438 431.81V449.914H409.798C415.958 449.914 419.785 449.825 421.28 449.647C423.986 449.326 426.104 448.4 427.635 446.87C429.202 445.303 429.985 443.256 429.985 440.728C429.985 438.307 429.308 436.349 427.955 434.854C426.638 433.323 424.662 432.397 422.028 432.077C420.461 431.899 415.958 431.81 408.517 431.81H399.438ZM399.438 462.944V483.878H414.071C419.767 483.878 423.381 483.718 424.911 483.397C427.261 482.97 429.166 481.938 430.626 480.3C432.121 478.627 432.869 476.402 432.869 473.625C432.869 471.275 432.299 469.281 431.16 467.643C430.02 466.006 428.365 464.813 426.193 464.065C424.057 463.318 419.393 462.944 412.202 462.944H399.438Z" fill="#ECECEC"/>
<path d="M383.631 418.78V417.446H382.297V418.78H383.631ZM428.757 419.581L428.525 420.894L428.534 420.895L428.542 420.897L428.757 419.581ZM436.927 422.785L436.172 423.884L436.18 423.889L436.927 422.785ZM442.962 429.353L441.81 430.026L441.814 430.033L442.962 429.353ZM442.374 448.578L441.257 447.851L441.251 447.86L442.374 448.578ZM434.364 455.467L433.814 454.253L430.528 455.74L433.991 456.748L434.364 455.467ZM446.7 484.786L445.505 484.195L445.502 484.2L446.7 484.786ZM439.918 492.85L440.682 493.942L440.685 493.94L439.918 492.85ZM429.344 496.535L429.487 497.86L429.49 497.86L429.344 496.535ZM410.279 497.069L410.279 498.402L410.288 498.402L410.279 497.069ZM383.631 497.069H382.297V498.402H383.631V497.069ZM399.438 431.81V430.476H398.105V431.81H399.438ZM399.438 449.914H398.105V451.247H399.438V449.914ZM421.28 449.647L421.123 448.322L421.122 448.322L421.28 449.647ZM427.955 434.854L426.945 435.724L426.956 435.736L426.967 435.748L427.955 434.854ZM422.028 432.077L422.189 430.753L422.178 430.752L422.028 432.077ZM399.438 462.944V461.61H398.105V462.944H399.438ZM399.438 483.878H398.105V485.211H399.438V483.878ZM424.911 483.397L424.673 482.085L424.656 482.089L424.638 482.092L424.911 483.397ZM430.626 480.3L429.631 479.411L429.63 479.413L430.626 480.3ZM431.16 467.643L432.254 466.882L431.16 467.643ZM426.193 464.065L425.753 465.324L425.759 465.326L426.193 464.065ZM383.631 420.113H414.925V417.446H383.631V420.113ZM414.925 420.113C421.104 420.113 425.618 420.381 428.525 420.894L428.988 418.267C425.842 417.712 421.136 417.446 414.925 417.446V420.113ZM428.542 420.897C431.424 421.366 433.961 422.365 436.172 423.884L437.682 421.685C435.123 419.929 432.212 418.792 428.971 418.264L428.542 420.897ZM436.18 423.889C438.422 425.406 440.3 427.442 441.81 430.026L444.113 428.681C442.419 425.782 440.275 423.439 437.674 421.68L436.18 423.889ZM441.814 430.033C443.285 432.517 444.031 435.323 444.031 438.485H446.698C446.698 434.883 445.842 431.601 444.109 428.674L441.814 430.033ZM444.031 438.485C444.031 441.895 443.109 445.006 441.257 447.851L443.492 449.306C445.627 446.027 446.698 442.41 446.698 438.485H444.031ZM441.251 447.86C439.435 450.699 436.966 452.826 433.814 454.253L434.914 456.682C438.526 455.047 441.397 452.581 443.498 449.297L441.251 447.86ZM433.991 456.748C438.539 458.072 441.945 460.298 444.306 463.381L446.424 461.759C443.658 458.149 439.73 455.64 434.736 454.187L433.991 456.748ZM444.306 463.381C446.678 466.477 447.876 470.121 447.876 474.372H450.543C450.543 469.58 449.178 465.356 446.424 461.759L444.306 463.381ZM447.876 474.372C447.876 477.715 447.093 480.985 445.505 484.195L447.895 485.377C449.654 481.822 450.543 478.15 450.543 474.372H447.876ZM445.502 484.2C443.957 487.356 441.84 489.866 439.15 491.759L440.685 493.94C443.763 491.774 446.167 488.908 447.898 485.372L445.502 484.2ZM439.153 491.757C436.524 493.598 433.224 494.766 429.198 495.209L429.49 497.86C433.866 497.378 437.615 496.089 440.682 493.942L439.153 491.757ZM429.201 495.209C426.647 495.485 420.368 495.664 410.27 495.735L410.288 498.402C420.341 498.331 426.771 498.154 429.487 497.86L429.201 495.209ZM410.279 495.735H383.631V498.402H410.279V495.735ZM384.964 497.069V418.78H382.297V497.069H384.964ZM398.105 431.81V449.914H400.772V431.81H398.105ZM399.438 451.247H409.798V448.58H399.438V451.247ZM409.798 451.247C415.927 451.247 419.846 451.16 421.438 450.971L421.122 448.322C419.724 448.489 415.988 448.58 409.798 448.58V451.247ZM421.437 450.971C424.362 450.624 426.786 449.605 428.578 447.812L426.692 445.927C425.423 447.196 423.61 448.028 421.123 448.322L421.437 450.971ZM428.578 447.812C430.43 445.96 431.318 443.555 431.318 440.728H428.651C428.651 442.957 427.973 444.646 426.692 445.927L428.578 447.812ZM431.318 440.728C431.318 438.047 430.562 435.747 428.944 433.959L426.967 435.748C428.055 436.951 428.651 438.568 428.651 440.728H431.318ZM428.966 433.984C427.371 432.131 425.047 431.101 422.189 430.753L421.867 433.401C424.277 433.694 425.905 434.515 426.945 435.724L428.966 433.984ZM422.178 430.752C420.518 430.563 415.921 430.476 408.517 430.476V433.143C415.994 433.143 420.405 433.234 421.877 433.402L422.178 430.752ZM408.517 430.476H399.438V433.143H408.517V430.476ZM398.105 462.944V483.878H400.772V462.944H398.105ZM399.438 485.211H414.071V482.544H399.438V485.211ZM414.071 485.211C419.724 485.211 423.49 485.057 425.185 484.703L424.638 482.092C423.271 482.378 419.81 482.544 414.071 482.544V485.211ZM425.15 484.709C427.765 484.234 429.946 483.067 431.621 481.187L429.63 479.413C428.386 480.808 426.758 481.706 424.673 482.085L425.15 484.709ZM431.62 481.188C433.382 479.216 434.202 476.648 434.202 473.625H431.535C431.535 476.155 430.86 478.037 429.631 479.411L431.62 481.188ZM434.202 473.625C434.202 471.052 433.575 468.781 432.254 466.882L430.065 468.405C431.023 469.782 431.535 471.497 431.535 473.625H434.202ZM432.254 466.882C430.93 464.978 429.025 463.63 426.627 462.805L425.759 465.326C427.705 465.996 429.111 467.034 430.065 468.405L432.254 466.882ZM426.634 462.807C425.395 462.373 423.551 462.084 421.2 461.895C418.819 461.704 415.816 461.61 412.202 461.61V464.277C415.778 464.277 418.704 464.37 420.987 464.553C423.299 464.739 424.855 465.01 425.753 465.324L426.634 462.807ZM412.202 461.61H399.438V464.277H412.202V461.61Z" fill="#ECECEC"/>
<path d="M448.964 458.509C448.964 450.767 450.122 444.269 452.438 439.016C454.166 435.145 456.516 431.671 459.488 428.595C462.495 425.519 465.779 423.238 469.339 421.752C474.074 419.747 479.535 418.745 485.721 418.745C496.92 418.745 505.871 422.218 512.576 429.165C519.316 436.112 522.686 445.773 522.686 458.146C522.686 470.416 519.351 480.024 512.68 486.971C506.01 493.884 497.092 497.34 485.929 497.34C474.627 497.34 465.641 493.901 458.97 487.023C452.299 480.11 448.964 470.606 448.964 458.509ZM464.777 457.99C464.777 466.597 466.764 473.129 470.739 477.587C474.713 482.011 479.759 484.223 485.877 484.223C491.994 484.223 497.006 482.029 500.912 477.639C504.852 473.215 506.822 466.597 506.822 457.783C506.822 449.073 504.904 442.576 501.067 438.29C497.265 434.004 492.202 431.861 485.877 431.861C479.552 431.861 474.454 434.039 470.583 438.394C466.712 442.714 464.777 449.246 464.777 457.99Z" fill="#ECECEC"/>
<path d="M452.438 439.016L451.22 438.472L451.218 438.478L452.438 439.016ZM459.488 428.595L458.535 427.663L458.53 427.668L459.488 428.595ZM469.339 421.752L469.853 422.982L469.859 422.98L469.339 421.752ZM512.576 429.165L511.617 430.091L511.619 430.094L512.576 429.165ZM512.68 486.971L513.64 487.897L513.642 487.895L512.68 486.971ZM458.97 487.023L458.01 487.949L458.013 487.951L458.97 487.023ZM470.739 477.587L469.743 478.475L469.747 478.479L470.739 477.587ZM500.912 477.639L499.916 476.752L499.915 476.753L500.912 477.639ZM501.067 438.29L500.07 439.175L500.074 439.179L501.067 438.29ZM470.583 438.394L471.576 439.283L471.58 439.279L470.583 438.394ZM450.298 458.509C450.298 450.891 451.438 444.589 453.658 439.554L451.218 438.478C448.806 443.949 447.631 450.643 447.631 458.509H450.298ZM453.655 439.559C455.32 435.831 457.582 432.487 460.447 429.522L458.53 427.668C455.45 430.855 453.012 434.458 451.22 438.472L453.655 439.559ZM460.442 429.527C463.338 426.564 466.476 424.392 469.852 422.982L468.825 420.521C465.082 422.084 461.653 424.474 458.535 427.663L460.442 429.527ZM469.859 422.98C474.399 421.057 479.678 420.078 485.721 420.078V417.411C479.392 417.411 473.748 418.437 468.819 420.524L469.859 422.98ZM485.721 420.078C496.621 420.078 505.204 423.447 511.617 430.091L513.536 428.239C506.539 420.99 497.219 417.411 485.721 417.411V420.078ZM511.619 430.094C518.056 436.728 521.353 446.019 521.353 458.146H524.019C524.019 445.527 520.577 435.497 513.534 428.237L511.619 430.094ZM521.353 458.146C521.353 470.17 518.09 479.412 511.718 486.048L513.642 487.895C520.611 480.636 524.019 470.662 524.019 458.146H521.353ZM511.721 486.045C505.342 492.655 496.794 496.006 485.929 496.006V498.673C497.391 498.673 506.677 495.113 513.64 487.897L511.721 486.045ZM485.929 496.006C474.918 496.006 466.302 492.667 459.927 486.095L458.013 487.951C464.979 495.135 474.336 498.673 485.929 498.673V496.006ZM459.93 486.097C453.557 479.493 450.298 470.354 450.298 458.509H447.631C447.631 470.857 451.042 480.728 458.01 487.949L459.93 486.097ZM463.443 457.99C463.443 466.781 465.472 473.683 469.743 478.475L471.734 476.7C468.056 472.574 466.11 466.412 466.11 457.99H463.443ZM469.747 478.479C473.982 483.193 479.393 485.557 485.877 485.557V482.89C480.125 482.89 475.444 480.83 471.73 476.696L469.747 478.479ZM485.877 485.557C492.357 485.557 497.738 483.213 501.908 478.526L499.915 476.753C496.274 480.845 491.632 482.89 485.877 482.89V485.557ZM501.907 478.526C506.15 473.762 508.155 466.768 508.155 457.783H505.488C505.488 466.425 503.553 472.668 499.916 476.752L501.907 478.526ZM508.155 457.783C508.155 448.909 506.205 442.03 502.061 437.4L500.074 439.179C503.602 443.121 505.488 449.238 505.488 457.783H508.155ZM502.065 437.405C497.982 432.802 492.539 430.528 485.877 430.528V433.195C491.865 433.195 496.549 435.206 500.07 439.175L502.065 437.405ZM485.877 430.528C479.208 430.528 473.734 432.842 469.586 437.508L471.58 439.279C475.174 435.236 479.896 433.195 485.877 433.195V430.528ZM469.59 437.504C465.412 442.167 463.443 449.079 463.443 457.99H466.11C466.11 449.413 468.012 443.261 471.576 439.283L469.59 437.504Z" fill="#ECECEC"/>
<path d="M180.174 496.685V430.997H156.714V417.622H219.543V430.997H196.137V496.685H180.174Z" fill="#868686"/>
<path d="M180.174 496.685H178.84V498.019H180.174V496.685ZM180.174 430.997H181.507V429.664H180.174V430.997ZM156.714 430.997H155.38V432.331H156.714V430.997ZM156.714 417.622V416.289H155.38V417.622H156.714ZM219.543 417.622H220.877V416.289H219.543V417.622ZM219.543 430.997V432.331H220.877V430.997H219.543ZM196.137 430.997V429.664H194.804V430.997H196.137ZM196.137 496.685V498.019H197.471V496.685H196.137ZM181.507 496.685V430.997H178.84V496.685H181.507ZM180.174 429.664H156.714V432.331H180.174V429.664ZM158.047 430.997V417.622H155.38V430.997H158.047ZM156.714 418.956H219.543V416.289H156.714V418.956ZM218.21 417.622V430.997H220.877V417.622H218.21ZM219.543 429.664H196.137V432.331H219.543V429.664ZM194.804 430.997V496.685H197.471V430.997H194.804ZM196.137 495.352H180.174V498.019H196.137V495.352Z" fill="#868686"/>
<path d="M218.999 417.6H234.678V459.658C234.678 466.332 234.873 470.658 235.261 472.636C235.932 475.814 237.521 478.374 240.028 480.316C242.571 482.223 246.032 483.177 250.41 483.177C254.86 483.177 258.215 482.276 260.475 480.475C262.735 478.639 264.094 476.396 264.553 473.748C265.012 471.099 265.242 466.703 265.242 460.558V417.6H280.921V458.387C280.921 467.709 280.497 474.295 279.65 478.144C278.802 481.994 277.231 485.242 274.935 487.891C272.675 490.539 269.638 492.658 265.825 494.247C262.011 495.801 257.032 496.578 250.887 496.578C243.471 496.578 237.839 495.73 233.99 494.035C230.176 492.305 227.157 490.08 224.932 487.361C222.707 484.607 221.242 481.729 220.536 478.727C219.511 474.278 218.999 467.709 218.999 459.022V417.6Z" fill="#868686"/>
<path d="M218.999 417.6V416.267H217.666V417.6H218.999ZM234.678 417.6H236.012V416.267H234.678V417.6ZM235.261 472.636L233.953 472.893L233.954 472.902L233.956 472.911L235.261 472.636ZM240.028 480.316L239.212 481.37L239.22 481.377L239.228 481.383L240.028 480.316ZM260.475 480.475L261.306 481.518L261.316 481.51L260.475 480.475ZM265.242 417.6V416.267H263.909V417.6H265.242ZM280.921 417.6H282.255V416.267H280.921V417.6ZM274.935 487.891L273.928 487.017L273.921 487.025L274.935 487.891ZM265.825 494.247L266.328 495.482L266.338 495.478L265.825 494.247ZM233.99 494.035L233.439 495.25L233.446 495.253L233.452 495.256L233.99 494.035ZM224.932 487.361L223.895 488.199L223.9 488.206L224.932 487.361ZM220.536 478.727L219.236 479.026L219.238 479.032L220.536 478.727ZM218.999 418.933H234.678V416.267H218.999V418.933ZM233.345 417.6V459.658H236.012V417.6H233.345ZM233.345 459.658C233.345 466.3 233.534 470.764 233.953 472.893L236.57 472.379C236.211 470.552 236.012 466.364 236.012 459.658H233.345ZM233.956 472.911C234.691 476.39 236.448 479.229 239.212 481.37L240.845 479.262C238.594 477.518 237.173 475.237 236.566 472.36L233.956 472.911ZM239.228 481.383C242.075 483.518 245.85 484.51 250.41 484.51V481.843C246.213 481.843 243.067 480.928 240.829 479.249L239.228 481.383ZM250.41 484.51C255.007 484.51 258.712 483.585 261.306 481.518L259.644 479.432C257.717 480.967 254.712 481.843 250.41 481.843V484.51ZM261.316 481.51C263.803 479.489 265.348 476.969 265.867 473.976L263.24 473.52C262.84 475.824 261.666 477.789 259.634 479.44L261.316 481.51ZM265.867 473.976C266.348 471.204 266.575 466.707 266.575 460.558H263.909C263.909 466.698 263.677 470.994 263.24 473.52L265.867 473.976ZM266.575 460.558V417.6H263.909V460.558H266.575ZM265.242 418.933H280.921V416.267H265.242V418.933ZM279.588 417.6V458.387H282.255V417.6H279.588ZM279.588 458.387C279.588 467.708 279.161 474.164 278.347 477.858L280.952 478.431C281.834 474.426 282.255 467.711 282.255 458.387H279.588ZM278.347 477.858C277.542 481.517 276.06 484.557 273.928 487.017L275.943 488.764C278.401 485.928 280.063 482.47 280.952 478.431L278.347 477.858ZM273.921 487.025C271.82 489.487 268.968 491.493 265.312 493.016L266.338 495.478C270.309 493.823 273.53 491.592 275.95 488.756L273.921 487.025ZM265.322 493.012C261.726 494.477 256.936 495.244 250.887 495.244V497.911C257.127 497.911 262.296 497.125 266.328 495.482L265.322 493.012ZM250.887 495.244C243.537 495.244 238.124 494.399 234.527 492.815L233.452 495.256C237.554 497.062 243.406 497.911 250.887 497.911V495.244ZM234.541 492.821C230.878 491.159 228.036 489.05 225.964 486.517L223.9 488.206C226.277 491.111 229.474 493.451 233.439 495.25L234.541 492.821ZM225.969 486.523C223.852 483.901 222.488 481.201 221.834 478.422L219.238 479.032C219.996 482.256 221.563 485.312 223.895 488.199L225.969 486.523ZM221.835 478.428C220.846 474.129 220.333 467.682 220.333 459.022H217.666C217.666 467.737 218.177 474.427 219.236 479.026L221.835 478.428ZM220.333 459.022V417.6H217.666V459.022H220.333Z" fill="#868686"/>
<path fill-rule="evenodd" clip-rule="evenodd" d="M705.678 120.318C698.985 120.444 689.338 123.652 683.187 125.99C679.459 127.407 666.514 133.087 664.149 136.315C666.657 137.207 677.944 134.493 683.7 134.837C689.448 135.181 697.96 137.281 703.565 138.588C718.684 142.111 724.559 149.423 741.531 144.5C751.695 140.854 750.277 141.594 755.116 133.844C748.876 131.495 735.092 131.348 731.344 127.052C724.632 119.359 720.623 119.954 705.677 120.318H705.678Z" fill="#DD3535"/>
</g>
<defs>
<clipPath id="clip0_51_148">
<rect width="789.725" height="507.504" fill="white"/>
</clipPath>
</defs>
</svg>
